<?xml version="1.0" encoding="UTF-8" standalone="no"?><!-- Generator: Gravit.io --><svg xmlns="http://www.w3.org/2000/svg" xmlns:xlink="http://www.w3.org/1999/xlink" style="isolation:isolate" viewBox="0 0 3031.75 2240" width="3031.75pt" height="2240pt"><defs><clipPath id="_clipPath_s2o62kG4cuR8rY7yUXNYKphIiXuptMXJ"><rect width="3031.75" height="2240"/></clipPath></defs><g clip-path="url(#_clipPath_s2o62kG4cuR8rY7yUXNYKphIiXuptMXJ)"><rect width="3031.75" height="2240" style="fill:rgb(218,219,210)" fill-opacity="0"/><g style="isolation:isolate"><path d=" M 2392.375 2041.65 L 2392.375 2240 L 2492.375 2200 L 2592.375 2240 L 2592.375 2041.65 L 2392.375 2041.65 Z " fill="rgb(33,32,26)"/><path d=" M 2293 1220.807 L 2393 1177.275 L 3031.75 1177.275 L 3031.75 2077.65 L 2931.775 2121.65 L 2293 2121.65 L 2293 1220.807 Z " fill="rgb(178,52,45)"/></g><g style="isolation:isolate"><path d=" M 1663 2077.9 L 1563 2121.65 L 1563 1221.025 L 1663 1177.275 L 1663 1689.775 L 1939.25 1421.65 L 2034.25 1465.4 L 1843 1654.775 L 1843 1654.775 Q 1917.375 1668.525 1964.875 1716.65 L 1964.875 1716.65 L 1964.875 1716.65 Q 2034.25 1785.4 2034.25 1882.9 L 2034.25 1882.9 L 2034.25 2077.9 L 1934.25 2121.65 L 1934.25 1884.775 L 1934.25 1884.775 Q 1933 1827.275 1894.25 1788.525 L 1894.25 1788.525 L 1894.25 1788.525 Q 1855.5 1749.775 1798 1749.15 L 1798 1749.15 L 1798 1749.15 Q 1743 1749.15 1702.375 1788.525 L 1702.375 1788.525 L 1702.375 1788.525 Q 1663 1826.65 1663 1881.025 L 1663 1881.025 L 1663 1884.775 L 1663 2077.9 Z " fill="rgb(33,32,26)"/><path d=" M 1311.25 2020.4 L 1311.25 2020.4 L 1311.25 2020.4 Q 1366.875 2020.4 1403.125 1982.9 L 1403.125 1982.9 L 1403.125 1982.9 Q 1439.375 1944.15 1439.375 1896.65 L 1439.375 1896.65 L 1439.375 1896.65 Q 1439.375 1854.775 1403.125 1817.275 L 1403.125 1817.275 L 1403.125 1817.275 Q 1366.25 1779.775 1303.125 1776.65 L 1303.125 1776.65 L 1303.125 1776.65 Q 1225.625 1772.9 1180 1729.775 L 1180 1729.775 L 1180 1729.775 Q 1135.625 1687.9 1126.875 1609.775 L 1126.875 1609.775 L 1126.875 1609.775 Q 1126.25 1604.15 1126.25 1598.525 L 1126.25 1598.525 L 1126.25 1598.525 Q 1129.375 1530.4 1181.25 1477.275 L 1181.25 1477.275 L 1181.25 1477.275 Q 1234.375 1421.65 1310.625 1421.65 L 1310.625 1421.65 L 1310.625 1421.65 Q 1391.25 1421.65 1440 1477.275 L 1440 1477.275 L 1440 1477.275 Q 1472.5 1514.775 1490.625 1576.65 L 1490.625 1576.65 L 1400 1616.65 L 1400 1616.65 Q 1390 1575.4 1369.375 1551.025 L 1369.375 1551.025 L 1369.375 1551.025 Q 1346.25 1525.4 1310 1525.4 L 1310 1525.4 L 1310 1525.4 Q 1275.625 1525.4 1250 1551.025 L 1250 1551.025 L 1250 1551.025 Q 1226.25 1574.775 1226.25 1604.775 L 1226.25 1604.775 L 1226.25 1604.775 Q 1226.25 1606.025 1226.25 1607.9 L 1226.25 1607.9 L 1226.25 1607.9 Q 1226.25 1637.9 1248.75 1659.775 L 1248.75 1659.775 L 1248.75 1659.775 Q 1269.375 1680.4 1308.75 1684.775 L 1308.75 1684.775 L 1308.75 1684.775 Q 1417.5 1697.275 1475.625 1751.65 L 1475.625 1751.65 L 1475.625 1751.65 Q 1539.375 1812.9 1539.375 1901.025 L 1539.375 1901.025 L 1539.375 1902.9 L 1539.375 1902.9 Q 1538.125 1986.65 1477.5 2052.9 L 1477.5 2052.9 L 1477.5 2052.9 Q 1413.75 2121.65 1311.25 2121.65 L 1311.25 2121.65 L 1311.25 2121.65 Q 1213.125 2121.65 1150 2054.15 L 1150 2054.15 L 1150 2054.15 Q 1079.375 1979.775 1075 1886.65 L 1075 1886.65 L 1074.375 1880.4 L 1174.375 1836.65 L 1175 1884.775 L 1175 1884.775 Q 1175.625 1942.9 1214.375 1981.025 L 1214.375 1981.025 L 1214.375 1981.025 Q 1254.375 2020.4 1311.25 2020.4 Z " fill="rgb(33,32,26)"/><path d=" M 824.375 2020.4 L 824.375 2020.4 L 824.375 2020.4 Q 876.875 2020.4 916.875 1981.025 L 916.875 1981.025 L 916.875 1981.025 Q 955.625 1942.9 956.875 1884.775 L 956.875 1884.775 L 956.875 1876.025 L 1056.875 1831.65 L 1056.875 1886.65 L 1056.875 1886.65 Q 1056.875 1974.15 981.875 2054.15 L 981.875 2054.15 L 981.875 2054.15 Q 918.125 2121.65 820.625 2121.65 L 820.625 2121.65 L 820.625 2121.65 Q 723.125 2121.65 654.375 2052.9 L 654.375 2052.9 L 654.375 2052.9 Q 585.625 1984.15 585.625 1886.65 L 585.625 1886.65 L 585.625 1656.65 L 585.625 1656.65 Q 585.625 1559.15 654.375 1490.4 L 654.375 1490.4 L 654.375 1490.4 Q 723.125 1421.65 820.625 1421.65 L 820.625 1421.65 L 820.625 1421.65 Q 914.375 1421.65 987.5 1490.4 L 987.5 1490.4 L 987.5 1490.4 Q 1056.875 1555.4 1056.875 1656.65 L 1056.875 1656.65 L 1056.875 1715.4 L 685.625 1880.4 L 685.625 1880.4 Q 685.625 1939.775 725 1980.087 L 725 1980.087 L 725 1980.087 Q 764.375 2020.4 824.375 2020.4 Z  M 816.875 1522.9 L 816.875 1522.9 L 816.875 1522.9 Q 764.375 1522.9 725 1562.275 L 725 1562.275 L 725 1562.275 Q 685.625 1601.65 685.625 1656.65 L 685.625 1656.65 L 685.625 1656.65 Q 685.625 1657.9 685.625 1658.525 L 685.625 1658.525 L 685.625 1771.025 L 956.25 1650.4 L 956.25 1650.4 Q 953.125 1597.9 916.875 1562.275 L 916.875 1562.275 L 916.875 1562.275 Q 876.875 1522.9 816.875 1522.9 Z " fill-rule="evenodd" fill="rgb(33,32,26)"/><path d=" M 282.5 1284.775 L 100 1285.4 L 100 2013.525 L 282.5 2013.525 L 283.125 2013.525 L 283.125 2013.525 Q 356.875 2013.525 411.25 1960.4 L 411.25 1960.4 L 411.25 1960.4 Q 465 1907.9 465 1832.9 L 465 1832.9 L 465 1465.4 L 465 1465.4 Q 465 1391.025 411.25 1337.9 L 411.25 1337.9 L 411.25 1337.9 Q 357.5 1284.775 283.125 1284.775 L 283.125 1284.775 L 282.5 1284.775 Z  M 283.125 2109.15 L 282.5 2109.15 L 0 2109.15 L 0 1232.9 L 100 1189.15 L 282.5 1189.15 L 283.125 1189.15 L 283.125 1189.15 Q 400 1189.15 482.5 1270.712 L 482.5 1270.712 L 482.5 1270.712 Q 565 1352.275 565 1467.275 L 565 1467.275 L 565 1831.025 L 565 1831.025 Q 565 1946.025 482.5 2027.587 L 482.5 2027.587 L 482.5 2027.587 Q 400 2109.15 283.125 2109.15 L 283.125 2109.15 Z " fill-rule="evenodd" fill="rgb(33,32,26)"/></g><g style="isolation:isolate"><path d=" M 2931.75 723.125 L 2931.75 723.125 L 3031.75 679.375 L 3031.75 729.375 L 3031.75 729.375 Q 3031.75 826.875 2963 895.625 L 2963 895.625 L 2963 895.625 Q 2894.25 964.375 2796.75 964.375 L 2796.75 964.375 L 2796.75 964.375 Q 2699.25 964.375 2629.875 895.625 L 2629.875 895.625 L 2629.875 895.625 Q 2560.5 826.875 2560.5 729.375 L 2560.5 729.375 L 2560.5 63.75 L 2660.5 20 L 2660.5 727.5 L 2660.5 727.5 Q 2661.75 785.625 2700.5 823.75 L 2700.5 823.75 L 2700.5 823.75 Q 2740.5 863.125 2800.5 863.125 L 2800.5 863.125 L 2800.5 863.125 Q 2853 863.125 2892.375 820.625 L 2892.375 820.625 L 2892.375 820.625 Q 2931.75 778.125 2931.75 723.125 Z " fill="rgb(33,32,26)"/><path d=" M 2300.5 843.125 L 2300.5 843.125 L 2300.5 843.125 Q 2353 843.125 2393 803.75 L 2393 803.75 L 2393 803.75 Q 2431.75 765.625 2433 707.5 L 2433 707.5 L 2433 698.75 L 2533 654.375 L 2533 709.375 L 2533 709.375 Q 2533 796.875 2458 876.875 L 2458 876.875 L 2458 876.875 Q 2394.25 944.375 2296.75 944.375 L 2296.75 944.375 L 2296.75 944.375 Q 2199.25 944.375 2130.5 875.625 L 2130.5 875.625 L 2130.5 875.625 Q 2061.75 806.875 2061.75 709.375 L 2061.75 709.375 L 2061.75 479.375 L 2061.75 479.375 Q 2061.75 381.875 2130.5 313.125 L 2130.5 313.125 L 2130.5 313.125 Q 2199.25 244.375 2296.75 244.375 L 2296.75 244.375 L 2296.75 244.375 Q 2390.5 244.375 2463.625 313.125 L 2463.625 313.125 L 2463.625 313.125 Q 2533 378.125 2533 479.375 L 2533 479.375 L 2533 538.125 L 2161.75 703.125 L 2161.75 703.125 Q 2161.75 762.5 2201.125 802.813 L 2201.125 802.813 L 2201.125 802.813 Q 2240.5 843.125 2300.5 843.125 Z  M 2293 345.625 L 2293 345.625 L 2293 345.625 Q 2240.5 345.625 2201.125 385 L 2201.125 385 L 2201.125 385 Q 2161.75 424.375 2161.75 479.375 L 2161.75 479.375 L 2161.75 479.375 Q 2161.75 480.625 2161.75 481.25 L 2161.75 481.25 L 2161.75 593.75 L 2432.375 473.125 L 2432.375 473.125 Q 2429.25 420.625 2393 385 L 2393 385 L 2393 385 Q 2353 345.625 2293 345.625 Z " fill-rule="evenodd" fill="rgb(33,32,26)"/><path d=" M 1663 1145 L 1563 1188.75 L 1563 479.375 L 1563 479.375 Q 1563 381.875 1632.375 313.125 L 1632.375 313.125 L 1632.375 313.125 Q 1701.75 244.375 1799.25 244.375 L 1799.25 244.375 L 1799.25 244.375 Q 1896.75 244.375 1965.5 313.125 L 1965.5 313.125 L 1965.5 313.125 Q 2034.25 381.875 2034.25 479.375 L 2034.25 479.375 L 2034.25 709.375 L 2034.25 709.375 Q 2034.25 806.875 1965.5 875.625 L 1965.5 875.625 L 1965.5 875.625 Q 1896.75 944.375 1799.25 944.375 L 1799.25 944.375 L 1799.25 944.375 Q 1722.375 944.375 1663 901.875 L 1663 901.875 L 1663 1145 Z  M 1663 481.25 L 1663 707.5 L 1663 707.5 Q 1663 765 1704.875 803.75 L 1704.875 803.75 L 1704.875 803.75 Q 1747.375 843.125 1801.75 843.125 L 1801.75 843.125 L 1801.75 843.125 Q 1854.25 843.125 1894.25 803.75 L 1894.25 803.75 L 1894.25 803.75 Q 1933 765.625 1934.25 707.5 L 1934.25 707.5 L 1934.25 481.25 L 1934.25 481.25 Q 1933 423.125 1894.25 385 L 1894.25 385 L 1894.25 385 Q 1854.25 345.625 1794.25 345.625 L 1794.25 345.625 L 1794.25 345.625 Q 1741.75 345.625 1702.375 385 L 1702.375 385 L 1702.375 385 Q 1663.625 423.75 1663 477.5 L 1663 477.5 L 1663 481.25 Z " fill-rule="evenodd" fill="rgb(33,32,26)"/><path d=" M 1311.25 843.125 L 1311.25 843.125 L 1311.25 843.125 Q 1366.875 843.125 1403.125 805.625 L 1403.125 805.625 L 1403.125 805.625 Q 1439.375 766.875 1439.375 719.375 L 1439.375 719.375 L 1439.375 719.375 Q 1439.375 677.5 1403.125 640 L 1403.125 640 L 1403.125 640 Q 1366.25 602.5 1303.125 599.375 L 1303.125 599.375 L 1303.125 599.375 Q 1225.625 595.625 1180 552.5 L 1180 552.5 L 1180 552.5 Q 1135.625 510.625 1126.875 432.5 L 1126.875 432.5 L 1126.875 432.5 Q 1126.25 426.875 1126.25 421.25 L 1126.25 421.25 L 1126.25 421.25 Q 1129.375 353.125 1181.25 300 L 1181.25 300 L 1181.25 300 Q 1234.375 244.375 1310.625 244.375 L 1310.625 244.375 L 1310.625 244.375 Q 1391.25 244.375 1440 300 L 1440 300 L 1440 300 Q 1472.5 337.5 1490.625 399.375 L 1490.625 399.375 L 1400 439.375 L 1400 439.375 Q 1390 398.125 1369.375 373.75 L 1369.375 373.75 L 1369.375 373.75 Q 1346.25 348.125 1310 348.125 L 1310 348.125 L 1310 348.125 Q 1275.625 348.125 1250 373.75 L 1250 373.75 L 1250 373.75 Q 1226.25 397.5 1226.25 427.5 L 1226.25 427.5 L 1226.25 427.5 Q 1226.25 428.75 1226.25 430.625 L 1226.25 430.625 L 1226.25 430.625 Q 1226.25 460.625 1248.75 482.5 L 1248.75 482.5 L 1248.75 482.5 Q 1269.375 503.125 1308.75 507.5 L 1308.75 507.5 L 1308.75 507.5 Q 1417.5 520 1475.625 574.375 L 1475.625 574.375 L 1475.625 574.375 Q 1539.375 635.625 1539.375 723.75 L 1539.375 723.75 L 1539.375 725.625 L 1539.375 725.625 Q 1538.125 809.375 1477.5 875.625 L 1477.5 875.625 L 1477.5 875.625 Q 1413.75 944.375 1311.25 944.375 L 1311.25 944.375 L 1311.25 944.375 Q 1213.125 944.375 1150 876.875 L 1150 876.875 L 1150 876.875 Q 1079.375 802.5 1075 709.375 L 1075 709.375 L 1074.375 703.125 L 1174.375 659.375 L 1175 707.5 L 1175 707.5 Q 1175.625 765.625 1214.375 803.75 L 1214.375 803.75 L 1214.375 803.75 Q 1254.375 843.125 1311.25 843.125 Z " fill="rgb(33,32,26)"/><path d=" M 585.625 709.375 L 585.625 479.375 L 585.625 479.375 Q 585.625 381.875 654.375 313.125 L 654.375 313.125 L 654.375 313.125 Q 723.125 244.375 820.625 244.375 L 820.625 244.375 L 820.625 244.375 Q 918.125 244.375 987.5 313.125 L 987.5 313.125 L 987.5 313.125 Q 1056.875 381.875 1056.875 479.375 L 1056.875 479.375 L 1056.875 709.375 L 1056.875 709.375 Q 1056.875 806.875 987.5 875.625 L 987.5 875.625 L 987.5 875.625 Q 918.125 944.375 820.625 944.375 L 820.625 944.375 L 820.625 944.375 Q 723.125 944.375 654.375 875.625 L 654.375 875.625 L 654.375 875.625 Q 585.625 806.875 585.625 709.375 L 585.625 709.375 Z  M 685.625 481.25 L 685.625 707.5 L 685.625 707.5 Q 685.625 765 727.5 803.75 L 727.5 803.75 L 727.5 803.75 Q 770 843.125 824.375 843.125 L 824.375 843.125 L 824.375 843.125 Q 876.875 843.125 916.875 803.75 L 916.875 803.75 L 916.875 803.75 Q 955.625 765.625 956.875 707.5 L 956.875 707.5 L 956.875 481.25 L 956.875 481.25 Q 955.625 423.125 916.875 385 L 916.875 385 L 916.875 385 Q 876.875 345.625 816.875 345.625 L 816.875 345.625 L 816.875 345.625 Q 764.375 345.625 725 385 L 725 385 L 725 385 Q 686.25 423.75 685.625 477.5 L 685.625 477.5 L 685.625 481.25 Z " fill-rule="evenodd" fill="rgb(33,32,26)"/><path d=" M 322.5 422.5 L 564.375 422.5 L 564.375 666.25 L 564.375 666.25 Q 564.375 781.25 481.875 862.813 L 481.875 862.813 L 481.875 862.813 Q 399.375 944.375 282.5 944.375 L 282.5 944.375 L 282.5 944.375 Q 165 944.375 83.125 863.125 L 83.125 863.125 L 83.125 863.125 Q 0.625 781.25 0.625 666.25 L 0.625 666.25 L 0.625 278.125 L 0.625 278.125 Q 0.625 163.125 83.125 81.563 L 83.125 81.563 L 83.125 81.563 Q 165.625 0 282.5 0 L 282.5 0 L 282.5 0 Q 400.625 0 481.875 81.875 L 481.875 81.875 L 481.875 81.875 Q 564.375 164.375 564.375 278.125 L 564.375 278.125 L 564.375 283.75 L 464.375 329.375 L 464.375 276.25 L 464.375 276.25 Q 464.375 201.875 410.625 148.75 L 410.625 148.75 L 410.625 148.75 Q 356.875 95.625 282.5 95.625 L 282.5 95.625 L 282.5 95.625 Q 206.875 95.625 153.75 148.438 L 153.75 148.438 L 153.75 148.438 Q 100.625 201.25 100.625 276.25 L 100.625 276.25 L 100.625 668.125 L 100.625 668.125 Q 100.625 742.5 153.75 795.625 L 153.75 795.625 L 153.75 795.625 Q 206.875 848.75 282.5 848.75 L 282.5 848.75 L 282.5 848.75 Q 354.375 848.75 410.625 795.625 L 410.625 795.625 L 410.625 795.625 Q 464.375 744.375 464.375 668.125 L 464.375 668.125 L 464.375 522.5 L 278.75 522.5 L 322.5 422.5 Z " fill="rgb(33,32,26)"/></g></g></svg>