<?xml version="1.0" encoding="UTF-8" standalone="no"?><!-- Generator: Gravit.io --><svg xmlns="http://www.w3.org/2000/svg" xmlns:xlink="http://www.w3.org/1999/xlink" style="isolation:isolate" viewBox="0 0 3600 3600" width="3600pt" height="3600pt"><defs><clipPath id="_clipPath_0enKp10G4wPKiE4enIw1E6WiymCPV5Z3"><rect width="3600" height="3600"/></clipPath></defs><g clip-path="url(#_clipPath_0enKp10G4wPKiE4enIw1E6WiymCPV5Z3)"><rect width="3600" height="3600" style="fill:rgb(218,219,210)" fill-opacity="0"/><g style="isolation:isolate"><g><path d=" M 1529.375 2133.012 L 1529.375 2331.363 L 1629.375 2291.363 L 1729.375 2331.363 L 1729.375 2133.012 L 1529.375 2133.012 Z " fill="rgb(33,32,26)"/><path d=" M 1430 1312.169 L 1530 1268.637 L 2168.75 1268.637 L 2168.75 2169.012 L 2068.775 2213.012 L 1430 2213.012 L 1430 1312.169 Z " fill="rgb(178,52,45)"/></g></g><g style="isolation:isolate"><path d=" M 2582.875 1364.262 L 2400.375 1364.887 L 2400.375 2093.012 L 2582.875 2093.012 L 2583.5 2093.012 L 2583.5 2093.012 Q 2657.25 2093.012 2711.625 2039.887 L 2711.625 2039.887 L 2711.625 2039.887 Q 2765.375 1987.387 2765.375 1912.387 L 2765.375 1912.387 L 2765.375 1544.887 L 2765.375 1544.887 Q 2765.375 1470.512 2711.625 1417.387 L 2711.625 1417.387 L 2711.625 1417.387 Q 2657.875 1364.262 2583.5 1364.262 L 2583.5 1364.262 L 2582.875 1364.262 Z  M 2583.5 2188.637 L 2582.875 2188.637 L 2300.375 2188.637 L 2300.375 1312.387 L 2400.375 1268.637 L 2582.875 1268.637 L 2583.5 1268.637 L 2583.5 1268.637 Q 2700.375 1268.637 2782.875 1350.2 L 2782.875 1350.2 L 2782.875 1350.2 Q 2865.375 1431.762 2865.375 1546.762 L 2865.375 1546.762 L 2865.375 1910.512 L 2865.375 1910.512 Q 2865.375 2025.512 2782.875 2107.075 L 2782.875 2107.075 L 2782.875 2107.075 Q 2700.375 2188.637 2583.5 2188.637 L 2583.5 2188.637 Z " fill-rule="evenodd" fill="rgb(33,32,26)"/></g><g style="isolation:isolate"><path d=" M 1056.5 1691.137 L 1298.375 1691.137 L 1298.375 1934.887 L 1298.375 1934.887 Q 1298.375 2049.887 1215.875 2131.45 L 1215.875 2131.45 L 1215.875 2131.45 Q 1133.375 2213.012 1016.5 2213.012 L 1016.5 2213.012 L 1016.5 2213.012 Q 899 2213.012 817.125 2131.762 L 817.125 2131.762 L 817.125 2131.762 Q 734.625 2049.887 734.625 1934.887 L 734.625 1934.887 L 734.625 1546.762 L 734.625 1546.762 Q 734.625 1431.762 817.125 1350.2 L 817.125 1350.2 L 817.125 1350.2 Q 899.625 1268.637 1016.5 1268.637 L 1016.5 1268.637 L 1016.5 1268.637 Q 1134.625 1268.637 1215.875 1350.512 L 1215.875 1350.512 L 1215.875 1350.512 Q 1298.375 1433.012 1298.375 1546.762 L 1298.375 1546.762 L 1298.375 1552.387 L 1198.375 1598.012 L 1198.375 1544.887 L 1198.375 1544.887 Q 1198.375 1470.512 1144.625 1417.387 L 1144.625 1417.387 L 1144.625 1417.387 Q 1090.875 1364.262 1016.5 1364.262 L 1016.5 1364.262 L 1016.5 1364.262 Q 940.875 1364.262 887.75 1417.075 L 887.75 1417.075 L 887.75 1417.075 Q 834.625 1469.887 834.625 1544.887 L 834.625 1544.887 L 834.625 1936.762 L 834.625 1936.762 Q 834.625 2011.137 887.75 2064.262 L 887.75 2064.262 L 887.75 2064.262 Q 940.875 2117.387 1016.5 2117.387 L 1016.5 2117.387 L 1016.5 2117.387 Q 1088.375 2117.387 1144.625 2064.262 L 1144.625 2064.262 L 1144.625 2064.262 Q 1198.375 2013.012 1198.375 1936.762 L 1198.375 1936.762 L 1198.375 1791.137 L 1012.75 1791.137 L 1056.5 1691.137 Z " fill="rgb(33,32,26)"/></g></g></svg>
