<?xml version="1.0" encoding="UTF-8" standalone="no"?><!-- Generator: Gravit.io --><svg xmlns="http://www.w3.org/2000/svg" xmlns:xlink="http://www.w3.org/1999/xlink" style="isolation:isolate" viewBox="0 0 3600 3600" width="3600pt" height="3600pt"><defs><clipPath id="_clipPath_lZqf2cJoIyrkgFcJoRRx9t18LwQd6ffg"><rect width="3600" height="3600"/></clipPath></defs><g clip-path="url(#_clipPath_lZqf2cJoIyrkgFcJoRRx9t18LwQd6ffg)"><rect width="3600" height="3600" style="fill:rgb(218,219,210)" fill-opacity="0"/><g style="isolation:isolate"><g style="isolation:isolate"><path d=" M 2676.5 2721.65 L 2676.5 2920 L 2776.5 2880 L 2876.5 2920 L 2876.5 2721.65 L 2676.5 2721.65 Z " fill="rgb(33,32,26)"/><path d=" M 2577.125 1900.807 L 2677.125 1857.275 L 3315.875 1857.275 L 3315.875 2757.65 L 3215.9 2801.65 L 2577.125 2801.65 L 2577.125 1900.807 Z " fill="rgb(178,52,45)"/></g><g style="isolation:isolate"><path d=" M 1947.125 2757.9 L 1847.125 2801.65 L 1847.125 1901.025 L 1947.125 1857.275 L 1947.125 2369.775 L 2223.375 2101.65 L 2318.375 2145.4 L 2127.125 2334.775 L 2127.125 2334.775 Q 2201.5 2348.525 2249 2396.65 L 2249 2396.65 L 2249 2396.65 Q 2318.375 2465.4 2318.375 2562.9 L 2318.375 2562.9 L 2318.375 2757.9 L 2218.375 2801.65 L 2218.375 2564.775 L 2218.375 2564.775 Q 2217.125 2507.275 2178.375 2468.525 L 2178.375 2468.525 L 2178.375 2468.525 Q 2139.625 2429.775 2082.125 2429.15 L 2082.125 2429.15 L 2082.125 2429.15 Q 2027.125 2429.15 1986.5 2468.525 L 1986.5 2468.525 L 1986.5 2468.525 Q 1947.125 2506.65 1947.125 2561.025 L 1947.125 2561.025 L 1947.125 2564.775 L 1947.125 2757.9 Z " fill="rgb(33,32,26)"/><path d=" M 1595.375 2700.4 L 1595.375 2700.4 L 1595.375 2700.4 Q 1651 2700.4 1687.25 2662.9 L 1687.25 2662.9 L 1687.25 2662.9 Q 1723.5 2624.15 1723.5 2576.65 L 1723.5 2576.65 L 1723.5 2576.65 Q 1723.5 2534.775 1687.25 2497.275 L 1687.25 2497.275 L 1687.25 2497.275 Q 1650.375 2459.775 1587.25 2456.65 L 1587.25 2456.65 L 1587.25 2456.65 Q 1509.75 2452.9 1464.125 2409.775 L 1464.125 2409.775 L 1464.125 2409.775 Q 1419.75 2367.9 1411 2289.775 L 1411 2289.775 L 1411 2289.775 Q 1410.375 2284.15 1410.375 2278.525 L 1410.375 2278.525 L 1410.375 2278.525 Q 1413.5 2210.4 1465.375 2157.275 L 1465.375 2157.275 L 1465.375 2157.275 Q 1518.5 2101.65 1594.75 2101.65 L 1594.75 2101.65 L 1594.75 2101.65 Q 1675.375 2101.65 1724.125 2157.275 L 1724.125 2157.275 L 1724.125 2157.275 Q 1756.625 2194.775 1774.75 2256.65 L 1774.75 2256.65 L 1684.125 2296.65 L 1684.125 2296.65 Q 1674.125 2255.4 1653.5 2231.025 L 1653.5 2231.025 L 1653.5 2231.025 Q 1630.375 2205.4 1594.125 2205.4 L 1594.125 2205.4 L 1594.125 2205.4 Q 1559.75 2205.4 1534.125 2231.025 L 1534.125 2231.025 L 1534.125 2231.025 Q 1510.375 2254.775 1510.375 2284.775 L 1510.375 2284.775 L 1510.375 2284.775 Q 1510.375 2286.025 1510.375 2287.9 L 1510.375 2287.9 L 1510.375 2287.9 Q 1510.375 2317.9 1532.875 2339.775 L 1532.875 2339.775 L 1532.875 2339.775 Q 1553.5 2360.4 1592.875 2364.775 L 1592.875 2364.775 L 1592.875 2364.775 Q 1701.625 2377.275 1759.75 2431.65 L 1759.75 2431.65 L 1759.75 2431.65 Q 1823.5 2492.9 1823.5 2581.025 L 1823.5 2581.025 L 1823.5 2582.9 L 1823.5 2582.9 Q 1822.25 2666.65 1761.625 2732.9 L 1761.625 2732.9 L 1761.625 2732.9 Q 1697.875 2801.65 1595.375 2801.65 L 1595.375 2801.65 L 1595.375 2801.65 Q 1497.25 2801.65 1434.125 2734.15 L 1434.125 2734.15 L 1434.125 2734.15 Q 1363.5 2659.775 1359.125 2566.65 L 1359.125 2566.65 L 1358.5 2560.4 L 1458.5 2516.65 L 1459.125 2564.775 L 1459.125 2564.775 Q 1459.75 2622.9 1498.5 2661.025 L 1498.5 2661.025 L 1498.5 2661.025 Q 1538.5 2700.4 1595.375 2700.4 Z " fill="rgb(33,32,26)"/><path d=" M 1108.5 2700.4 L 1108.5 2700.4 L 1108.5 2700.4 Q 1161 2700.4 1201 2661.025 L 1201 2661.025 L 1201 2661.025 Q 1239.75 2622.9 1241 2564.775 L 1241 2564.775 L 1241 2556.025 L 1341 2511.65 L 1341 2566.65 L 1341 2566.65 Q 1341 2654.15 1266 2734.15 L 1266 2734.15 L 1266 2734.15 Q 1202.25 2801.65 1104.75 2801.65 L 1104.75 2801.65 L 1104.75 2801.65 Q 1007.25 2801.65 938.5 2732.9 L 938.5 2732.9 L 938.5 2732.9 Q 869.75 2664.15 869.75 2566.65 L 869.75 2566.65 L 869.75 2336.65 L 869.75 2336.65 Q 869.75 2239.15 938.5 2170.4 L 938.5 2170.4 L 938.5 2170.4 Q 1007.25 2101.65 1104.75 2101.65 L 1104.75 2101.65 L 1104.75 2101.65 Q 1198.5 2101.65 1271.625 2170.4 L 1271.625 2170.4 L 1271.625 2170.4 Q 1341 2235.4 1341 2336.65 L 1341 2336.65 L 1341 2395.4 L 969.75 2560.4 L 969.75 2560.4 Q 969.75 2619.775 1009.125 2660.087 L 1009.125 2660.087 L 1009.125 2660.087 Q 1048.5 2700.4 1108.5 2700.4 Z  M 1101 2202.9 L 1101 2202.9 L 1101 2202.9 Q 1048.5 2202.9 1009.125 2242.275 L 1009.125 2242.275 L 1009.125 2242.275 Q 969.75 2281.65 969.75 2336.65 L 969.75 2336.65 L 969.75 2336.65 Q 969.75 2337.9 969.75 2338.525 L 969.75 2338.525 L 969.75 2451.025 L 1240.375 2330.4 L 1240.375 2330.4 Q 1237.25 2277.9 1201 2242.275 L 1201 2242.275 L 1201 2242.275 Q 1161 2202.9 1101 2202.9 Z " fill-rule="evenodd" fill="rgb(33,32,26)"/><path d=" M 566.625 1964.775 L 384.125 1965.4 L 384.125 2693.525 L 566.625 2693.525 L 567.25 2693.525 L 567.25 2693.525 Q 641 2693.525 695.375 2640.4 L 695.375 2640.4 L 695.375 2640.4 Q 749.125 2587.9 749.125 2512.9 L 749.125 2512.9 L 749.125 2145.4 L 749.125 2145.4 Q 749.125 2071.025 695.375 2017.9 L 695.375 2017.9 L 695.375 2017.9 Q 641.625 1964.775 567.25 1964.775 L 567.25 1964.775 L 566.625 1964.775 Z  M 567.25 2789.15 L 566.625 2789.15 L 284.125 2789.15 L 284.125 1912.9 L 384.125 1869.15 L 566.625 1869.15 L 567.25 1869.15 L 567.25 1869.15 Q 684.125 1869.15 766.625 1950.712 L 766.625 1950.712 L 766.625 1950.712 Q 849.125 2032.275 849.125 2147.275 L 849.125 2147.275 L 849.125 2511.025 L 849.125 2511.025 Q 849.125 2626.025 766.625 2707.587 L 766.625 2707.587 L 766.625 2707.587 Q 684.125 2789.15 567.25 2789.15 L 567.25 2789.15 Z " fill-rule="evenodd" fill="rgb(33,32,26)"/></g><g style="isolation:isolate"><path d=" M 3215.875 1403.125 L 3215.875 1403.125 L 3315.875 1359.375 L 3315.875 1409.375 L 3315.875 1409.375 Q 3315.875 1506.875 3247.125 1575.625 L 3247.125 1575.625 L 3247.125 1575.625 Q 3178.375 1644.375 3080.875 1644.375 L 3080.875 1644.375 L 3080.875 1644.375 Q 2983.375 1644.375 2914 1575.625 L 2914 1575.625 L 2914 1575.625 Q 2844.625 1506.875 2844.625 1409.375 L 2844.625 1409.375 L 2844.625 743.75 L 2944.625 700 L 2944.625 1407.5 L 2944.625 1407.5 Q 2945.875 1465.625 2984.625 1503.75 L 2984.625 1503.75 L 2984.625 1503.75 Q 3024.625 1543.125 3084.625 1543.125 L 3084.625 1543.125 L 3084.625 1543.125 Q 3137.125 1543.125 3176.5 1500.625 L 3176.5 1500.625 L 3176.5 1500.625 Q 3215.875 1458.125 3215.875 1403.125 Z " fill="rgb(33,32,26)"/><path d=" M 2584.625 1523.125 L 2584.625 1523.125 L 2584.625 1523.125 Q 2637.125 1523.125 2677.125 1483.75 L 2677.125 1483.75 L 2677.125 1483.75 Q 2715.875 1445.625 2717.125 1387.5 L 2717.125 1387.5 L 2717.125 1378.75 L 2817.125 1334.375 L 2817.125 1389.375 L 2817.125 1389.375 Q 2817.125 1476.875 2742.125 1556.875 L 2742.125 1556.875 L 2742.125 1556.875 Q 2678.375 1624.375 2580.875 1624.375 L 2580.875 1624.375 L 2580.875 1624.375 Q 2483.375 1624.375 2414.625 1555.625 L 2414.625 1555.625 L 2414.625 1555.625 Q 2345.875 1486.875 2345.875 1389.375 L 2345.875 1389.375 L 2345.875 1159.375 L 2345.875 1159.375 Q 2345.875 1061.875 2414.625 993.125 L 2414.625 993.125 L 2414.625 993.125 Q 2483.375 924.375 2580.875 924.375 L 2580.875 924.375 L 2580.875 924.375 Q 2674.625 924.375 2747.75 993.125 L 2747.75 993.125 L 2747.75 993.125 Q 2817.125 1058.125 2817.125 1159.375 L 2817.125 1159.375 L 2817.125 1218.125 L 2445.875 1383.125 L 2445.875 1383.125 Q 2445.875 1442.5 2485.25 1482.813 L 2485.25 1482.813 L 2485.25 1482.813 Q 2524.625 1523.125 2584.625 1523.125 Z  M 2577.125 1025.625 L 2577.125 1025.625 L 2577.125 1025.625 Q 2524.625 1025.625 2485.25 1065 L 2485.25 1065 L 2485.25 1065 Q 2445.875 1104.375 2445.875 1159.375 L 2445.875 1159.375 L 2445.875 1159.375 Q 2445.875 1160.625 2445.875 1161.25 L 2445.875 1161.25 L 2445.875 1273.75 L 2716.5 1153.125 L 2716.5 1153.125 Q 2713.375 1100.625 2677.125 1065 L 2677.125 1065 L 2677.125 1065 Q 2637.125 1025.625 2577.125 1025.625 Z " fill-rule="evenodd" fill="rgb(33,32,26)"/><path d=" M 1947.125 1825 L 1847.125 1868.75 L 1847.125 1159.375 L 1847.125 1159.375 Q 1847.125 1061.875 1916.5 993.125 L 1916.5 993.125 L 1916.5 993.125 Q 1985.875 924.375 2083.375 924.375 L 2083.375 924.375 L 2083.375 924.375 Q 2180.875 924.375 2249.625 993.125 L 2249.625 993.125 L 2249.625 993.125 Q 2318.375 1061.875 2318.375 1159.375 L 2318.375 1159.375 L 2318.375 1389.375 L 2318.375 1389.375 Q 2318.375 1486.875 2249.625 1555.625 L 2249.625 1555.625 L 2249.625 1555.625 Q 2180.875 1624.375 2083.375 1624.375 L 2083.375 1624.375 L 2083.375 1624.375 Q 2006.5 1624.375 1947.125 1581.875 L 1947.125 1581.875 L 1947.125 1825 Z  M 1947.125 1161.25 L 1947.125 1387.5 L 1947.125 1387.5 Q 1947.125 1445 1989 1483.75 L 1989 1483.75 L 1989 1483.75 Q 2031.5 1523.125 2085.875 1523.125 L 2085.875 1523.125 L 2085.875 1523.125 Q 2138.375 1523.125 2178.375 1483.75 L 2178.375 1483.75 L 2178.375 1483.75 Q 2217.125 1445.625 2218.375 1387.5 L 2218.375 1387.5 L 2218.375 1161.25 L 2218.375 1161.25 Q 2217.125 1103.125 2178.375 1065 L 2178.375 1065 L 2178.375 1065 Q 2138.375 1025.625 2078.375 1025.625 L 2078.375 1025.625 L 2078.375 1025.625 Q 2025.875 1025.625 1986.5 1065 L 1986.5 1065 L 1986.5 1065 Q 1947.75 1103.75 1947.125 1157.5 L 1947.125 1157.5 L 1947.125 1161.25 Z " fill-rule="evenodd" fill="rgb(33,32,26)"/><path d=" M 1595.375 1523.125 L 1595.375 1523.125 L 1595.375 1523.125 Q 1651 1523.125 1687.25 1485.625 L 1687.25 1485.625 L 1687.25 1485.625 Q 1723.5 1446.875 1723.5 1399.375 L 1723.5 1399.375 L 1723.5 1399.375 Q 1723.5 1357.5 1687.25 1320 L 1687.25 1320 L 1687.25 1320 Q 1650.375 1282.5 1587.25 1279.375 L 1587.25 1279.375 L 1587.25 1279.375 Q 1509.75 1275.625 1464.125 1232.5 L 1464.125 1232.5 L 1464.125 1232.5 Q 1419.75 1190.625 1411 1112.5 L 1411 1112.5 L 1411 1112.5 Q 1410.375 1106.875 1410.375 1101.25 L 1410.375 1101.25 L 1410.375 1101.25 Q 1413.5 1033.125 1465.375 980 L 1465.375 980 L 1465.375 980 Q 1518.5 924.375 1594.75 924.375 L 1594.75 924.375 L 1594.75 924.375 Q 1675.375 924.375 1724.125 980 L 1724.125 980 L 1724.125 980 Q 1756.625 1017.5 1774.75 1079.375 L 1774.75 1079.375 L 1684.125 1119.375 L 1684.125 1119.375 Q 1674.125 1078.125 1653.5 1053.75 L 1653.5 1053.75 L 1653.5 1053.75 Q 1630.375 1028.125 1594.125 1028.125 L 1594.125 1028.125 L 1594.125 1028.125 Q 1559.75 1028.125 1534.125 1053.75 L 1534.125 1053.75 L 1534.125 1053.75 Q 1510.375 1077.5 1510.375 1107.5 L 1510.375 1107.5 L 1510.375 1107.5 Q 1510.375 1108.75 1510.375 1110.625 L 1510.375 1110.625 L 1510.375 1110.625 Q 1510.375 1140.625 1532.875 1162.5 L 1532.875 1162.5 L 1532.875 1162.5 Q 1553.5 1183.125 1592.875 1187.5 L 1592.875 1187.5 L 1592.875 1187.5 Q 1701.625 1200 1759.75 1254.375 L 1759.75 1254.375 L 1759.75 1254.375 Q 1823.5 1315.625 1823.5 1403.75 L 1823.5 1403.75 L 1823.5 1405.625 L 1823.5 1405.625 Q 1822.25 1489.375 1761.625 1555.625 L 1761.625 1555.625 L 1761.625 1555.625 Q 1697.875 1624.375 1595.375 1624.375 L 1595.375 1624.375 L 1595.375 1624.375 Q 1497.25 1624.375 1434.125 1556.875 L 1434.125 1556.875 L 1434.125 1556.875 Q 1363.5 1482.5 1359.125 1389.375 L 1359.125 1389.375 L 1358.5 1383.125 L 1458.5 1339.375 L 1459.125 1387.5 L 1459.125 1387.5 Q 1459.75 1445.625 1498.5 1483.75 L 1498.5 1483.75 L 1498.5 1483.75 Q 1538.5 1523.125 1595.375 1523.125 Z " fill="rgb(33,32,26)"/><path d=" M 869.75 1389.375 L 869.75 1159.375 L 869.75 1159.375 Q 869.75 1061.875 938.5 993.125 L 938.5 993.125 L 938.5 993.125 Q 1007.25 924.375 1104.75 924.375 L 1104.75 924.375 L 1104.75 924.375 Q 1202.25 924.375 1271.625 993.125 L 1271.625 993.125 L 1271.625 993.125 Q 1341 1061.875 1341 1159.375 L 1341 1159.375 L 1341 1389.375 L 1341 1389.375 Q 1341 1486.875 1271.625 1555.625 L 1271.625 1555.625 L 1271.625 1555.625 Q 1202.25 1624.375 1104.75 1624.375 L 1104.75 1624.375 L 1104.75 1624.375 Q 1007.25 1624.375 938.5 1555.625 L 938.5 1555.625 L 938.5 1555.625 Q 869.75 1486.875 869.75 1389.375 L 869.75 1389.375 Z  M 969.75 1161.25 L 969.75 1387.5 L 969.75 1387.5 Q 969.75 1445 1011.625 1483.75 L 1011.625 1483.75 L 1011.625 1483.75 Q 1054.125 1523.125 1108.5 1523.125 L 1108.5 1523.125 L 1108.5 1523.125 Q 1161 1523.125 1201 1483.75 L 1201 1483.75 L 1201 1483.75 Q 1239.75 1445.625 1241 1387.5 L 1241 1387.5 L 1241 1161.25 L 1241 1161.25 Q 1239.75 1103.125 1201 1065 L 1201 1065 L 1201 1065 Q 1161 1025.625 1101 1025.625 L 1101 1025.625 L 1101 1025.625 Q 1048.5 1025.625 1009.125 1065 L 1009.125 1065 L 1009.125 1065 Q 970.375 1103.75 969.75 1157.5 L 969.75 1157.5 L 969.75 1161.25 Z " fill-rule="evenodd" fill="rgb(33,32,26)"/><path d=" M 606.625 1102.5 L 848.5 1102.5 L 848.5 1346.25 L 848.5 1346.25 Q 848.5 1461.25 766 1542.813 L 766 1542.813 L 766 1542.813 Q 683.5 1624.375 566.625 1624.375 L 566.625 1624.375 L 566.625 1624.375 Q 449.125 1624.375 367.25 1543.125 L 367.25 1543.125 L 367.25 1543.125 Q 284.75 1461.25 284.75 1346.25 L 284.75 1346.25 L 284.75 958.125 L 284.75 958.125 Q 284.75 843.125 367.25 761.563 L 367.25 761.563 L 367.25 761.563 Q 449.75 680 566.625 680 L 566.625 680 L 566.625 680 Q 684.75 680 766 761.875 L 766 761.875 L 766 761.875 Q 848.5 844.375 848.5 958.125 L 848.5 958.125 L 848.5 963.75 L 748.5 1009.375 L 748.5 956.25 L 748.5 956.25 Q 748.5 881.875 694.75 828.75 L 694.75 828.75 L 694.75 828.75 Q 641 775.625 566.625 775.625 L 566.625 775.625 L 566.625 775.625 Q 491 775.625 437.875 828.438 L 437.875 828.438 L 437.875 828.438 Q 384.75 881.25 384.75 956.25 L 384.75 956.25 L 384.75 1348.125 L 384.75 1348.125 Q 384.75 1422.5 437.875 1475.625 L 437.875 1475.625 L 437.875 1475.625 Q 491 1528.75 566.625 1528.75 L 566.625 1528.75 L 566.625 1528.75 Q 638.5 1528.75 694.75 1475.625 L 694.75 1475.625 L 694.75 1475.625 Q 748.5 1424.375 748.5 1348.125 L 748.5 1348.125 L 748.5 1202.5 L 562.875 1202.5 L 606.625 1102.5 Z " fill="rgb(33,32,26)"/></g></g></g></svg>
